<?xml version="1.0" encoding="UTF-8" standalone="no"?>
<!DOCTYPE svg PUBLIC "-//W3C//DTD SVG 1.1//EN" "http://www.w3.org/Graphics/SVG/1.1/DTD/svg11.dtd">
<svg width="100%" height="100%" viewBox="0 0 63 53" version="1.1" xmlns="http://www.w3.org/2000/svg" xmlns:xlink="http://www.w3.org/1999/xlink" xml:space="preserve" xmlns:serif="http://www.serif.com/" style="fill-rule:evenodd;clip-rule:evenodd;stroke-linejoin:round;stroke-miterlimit:2;">
    <g transform="matrix(1,0,0,1,-338.446,-533.523)">
        <g transform="matrix(4.16667,0,0,4.16667,-2809.5,-96.9441)">
            <path d="M762.562,158.219L762.562,160.125L762.253,160.125L762.253,158.219L762.562,158.219ZM762.407,163.501C762.124,163.501 761.875,163.341 761.875,163.161L761.875,162.919C762.028,162.997 762.21,163.042 762.407,163.042C762.605,163.042 762.786,162.997 762.938,162.919L762.938,163.161C762.938,163.341 762.69,163.501 762.407,163.501ZM762.938,160.923L762.938,162.243C762.938,162.424 762.69,162.584 762.407,162.584C762.124,162.584 761.875,162.424 761.875,162.243L761.875,160.923C761.875,160.742 762.124,160.583 762.407,160.583C762.69,160.583 762.938,160.742 762.938,160.923ZM760.334,155.687C760.334,154.543 761.264,153.614 762.407,153.614C763.551,153.614 764.481,154.543 764.481,155.687C764.481,156.832 763.551,157.761 762.407,157.761C761.264,157.761 760.334,156.832 760.334,155.687ZM764.938,155.687C764.938,154.292 763.803,153.155 762.407,153.155C761.012,153.155 759.875,154.292 759.875,155.687C759.875,156.872 760.694,157.867 761.794,158.141L761.794,160.293C761.563,160.437 761.417,160.664 761.417,160.923L761.417,163.161C761.417,163.609 761.853,163.96 762.407,163.96C762.962,163.96 763.397,163.609 763.397,163.161L763.397,160.923C763.397,160.664 763.251,160.437 763.019,160.293L763.019,158.141C764.12,157.867 764.938,156.873 764.938,155.687Z" style="fill:rgb(83,112,241);fill-rule:nonzero;"/>
        </g>
        <g transform="matrix(4.16667,0,0,4.16667,-2809.5,-96.9441)">
            <path d="M770.397,157.696C770.397,156.702 769.607,155.887 768.622,155.848C768.472,154.523 767.344,153.49 765.979,153.49C765.795,153.49 765.612,153.509 765.434,153.546C764.976,152.216 763.74,151.312 762.332,151.312C760.741,151.312 759.393,152.477 759.102,154.031C758.849,153.958 758.586,153.919 758.318,153.919C756.768,153.919 755.506,155.182 755.506,156.732C755.506,158.283 756.768,159.545 758.318,159.545L761.794,159.545L761.794,158.934L758.318,158.934C757.104,158.934 756.116,157.947 756.116,156.732C756.116,155.518 757.104,154.53 758.318,154.53C758.636,154.53 758.942,154.596 759.229,154.728C759.321,154.77 759.427,154.763 759.513,154.712C759.599,154.661 759.654,154.571 759.661,154.469C759.755,153.042 760.928,151.922 762.332,151.922C763.563,151.922 764.63,152.774 764.929,153.992L765.078,154.187L765.322,154.209C765.534,154.137 765.756,154.1 765.979,154.1C767.108,154.1 768.028,155.02 768.028,156.151L768.028,156.167L768.134,156.397L768.376,156.469L768.548,156.458C769.231,156.458 769.787,157.012 769.787,157.694L769.786,157.712L769.786,157.732L769.787,157.752C769.787,158.405 769.325,158.934 768.757,158.934L763.019,158.934L763.019,159.545L768.757,159.545C769.661,159.545 770.397,158.741 770.397,157.752L770.396,157.727L770.397,157.696Z" style="fill:rgb(83,112,241);fill-rule:nonzero;"/>
        </g>
    </g>
</svg>
