<?xml version="1.0" encoding="UTF-8" standalone="no"?>
<!DOCTYPE svg PUBLIC "-//W3C//DTD SVG 1.1//EN" "http://www.w3.org/Graphics/SVG/1.1/DTD/svg11.dtd">
<svg width="100%" height="100%" viewBox="0 0 34 53" version="1.1" xmlns="http://www.w3.org/2000/svg" xmlns:xlink="http://www.w3.org/1999/xlink" xml:space="preserve" xmlns:serif="http://www.serif.com/" style="fill-rule:evenodd;clip-rule:evenodd;stroke-linejoin:round;stroke-miterlimit:2;">
    <g transform="matrix(1,0,0,1,-129.915,-437.302)">
        <g transform="matrix(4.16667,0,0,4.16667,-658.256,-432.127)">
            <path d="M195.601,219.58L189.619,219.58L189.619,211.452L193.582,211.452L193.582,213.24C193.582,213.367 193.685,213.469 193.812,213.469L195.601,213.469L195.601,219.58ZM195.276,213.011L194.04,213.011L194.04,211.775L195.276,213.011ZM196.054,213.197L196.054,213.196L196.033,213.139L196.026,213.127L195.991,213.078L193.974,211.061L193.924,211.025L193.912,211.018L193.855,210.998L193.854,210.998L193.812,210.994L189.391,210.994C189.264,210.994 189.161,211.096 189.161,211.222L189.161,219.809C189.161,219.935 189.264,220.039 189.391,220.039L195.829,220.039C195.955,220.039 196.058,219.935 196.058,219.809L196.058,213.24L196.054,213.197Z" style="fill:rgb(86,104,116);fill-rule:nonzero;"/>
        </g>
        <g transform="matrix(4.16667,0,0,4.16667,-658.256,-432.127)">
            <path d="M196.998,212.468L195.382,212.468L195.839,212.927L196.769,212.927L196.769,220.78L191.556,220.78L191.556,220.039L191.098,220.039L191.098,221.008C191.098,221.135 191.2,221.237 191.327,221.237L196.998,221.237C197.124,221.237 197.228,221.135 197.228,221.008L197.228,212.698C197.228,212.572 197.124,212.468 196.998,212.468Z" style="fill:rgb(86,104,116);fill-rule:nonzero;"/>
        </g>
        <g transform="matrix(4.16667,0,0,4.16667,-658.256,-432.127)">
            <path d="M194.809,214.585L190.393,214.585C190.266,214.585 190.162,214.483 190.162,214.357C190.162,214.231 190.266,214.127 190.393,214.127L194.809,214.127C194.936,214.127 195.037,214.231 195.037,214.357C195.037,214.483 194.936,214.585 194.809,214.585Z" style="fill:rgb(86,104,116);fill-rule:nonzero;"/>
        </g>
        <g transform="matrix(4.16667,0,0,4.16667,-658.256,-432.127)">
            <path d="M194.82,216.038L190.393,216.038C190.266,216.038 190.162,215.936 190.162,215.809C190.162,215.683 190.266,215.581 190.393,215.581L194.82,215.581C194.947,215.581 195.049,215.683 195.049,215.809C195.049,215.936 194.947,216.038 194.82,216.038Z" style="fill:rgb(86,104,116);fill-rule:nonzero;"/>
        </g>
        <g transform="matrix(4.16667,0,0,4.16667,-658.256,-432.127)">
            <path d="M192.792,213.133L190.393,213.133C190.266,213.133 190.162,213.031 190.162,212.905C190.162,212.778 190.266,212.675 190.393,212.675L192.792,212.675C192.919,212.675 193.021,212.778 193.021,212.905C193.021,213.031 192.919,213.133 192.792,213.133Z" style="fill:rgb(86,104,116);fill-rule:nonzero;"/>
        </g>
        <g transform="matrix(4.16667,0,0,4.16667,-658.256,-432.127)">
            <path d="M194.809,217.491L190.393,217.491C190.266,217.491 190.162,217.388 190.162,217.262C190.162,217.135 190.266,217.032 190.393,217.032L194.809,217.032C194.936,217.032 195.037,217.135 195.037,217.262C195.037,217.388 194.936,217.491 194.809,217.491Z" style="fill:rgb(86,104,116);fill-rule:nonzero;"/>
        </g>
        <g transform="matrix(4.16667,0,0,4.16667,-658.256,-432.127)">
            <path d="M191.813,218.943L190.393,218.943C190.266,218.943 190.162,218.84 190.162,218.713C190.162,218.587 190.266,218.485 190.393,218.485L191.813,218.485C191.938,218.485 192.041,218.587 192.041,218.713C192.041,218.84 191.938,218.943 191.813,218.943Z" style="fill:rgb(86,104,116);fill-rule:nonzero;"/>
        </g>
        <g transform="matrix(4.16667,0,0,4.16667,-658.256,-432.127)">
            <path d="M197.159,211.051L196.836,211.051L196.502,211.386C196.467,209.878 195.232,208.663 193.716,208.663C192.848,208.663 192.045,209.055 191.513,209.742C191.4,209.886 191.302,210.043 191.219,210.21C191.162,210.323 191.207,210.46 191.321,210.517C191.435,210.574 191.571,210.528 191.628,210.415C191.697,210.275 191.78,210.143 191.874,210.023C192.319,209.45 192.99,209.12 193.716,209.12C194.977,209.12 196.005,210.127 196.043,211.378L195.716,211.051L195.393,211.051L195.393,211.376L196.114,212.097L196.276,212.164L196.438,212.097L197.159,211.376L197.159,211.051Z" style="fill:rgb(86,104,116);fill-rule:nonzero;"/>
        </g>
    </g>
</svg>
