<?xml version="1.0" encoding="UTF-8" standalone="no"?>
<!DOCTYPE svg PUBLIC "-//W3C//DTD SVG 1.1//EN" "http://www.w3.org/Graphics/SVG/1.1/DTD/svg11.dtd">
<svg width="100%" height="100%" viewBox="0 0 52 56" version="1.1" xmlns="http://www.w3.org/2000/svg" xmlns:xlink="http://www.w3.org/1999/xlink" xml:space="preserve" xmlns:serif="http://www.serif.com/" style="fill-rule:evenodd;clip-rule:evenodd;stroke-linejoin:round;stroke-miterlimit:2;">
    <g transform="matrix(1,0,0,1,-191.331,-352.805)">
        <g transform="matrix(4.16667,0,0,4.16667,-2308.33,38.8882)">
            <path d="M604.069,87.671L604.216,87.659L604.217,87.659L604.364,87.671L604.217,87.989L604.069,87.671ZM604.217,76.812C604.696,76.812 605.006,76.922 605.082,76.988L605.082,77.969C604.839,77.881 604.527,77.839 604.217,77.839C603.905,77.839 603.594,77.881 603.351,77.969L603.351,76.988C603.427,76.922 603.736,76.812 604.217,76.812ZM604.217,85.57C603.905,85.57 603.594,85.612 603.352,85.699L603.352,85.117C603.426,85.052 603.734,84.939 604.217,84.939C604.699,84.939 605.008,85.052 605.082,85.117L605.082,85.699C604.839,85.612 604.527,85.57 604.217,85.57ZM603.351,78.475C603.426,78.408 603.734,78.297 604.217,78.297C604.698,78.297 605.008,78.408 605.082,78.475L605.082,84.611C604.839,84.524 604.527,84.482 604.217,84.482C603.905,84.482 603.594,84.524 603.352,84.611L603.351,78.475ZM604.563,87.242C604.449,87.216 604.334,87.201 604.217,87.201L604.216,87.201C604.099,87.201 603.983,87.216 603.87,87.242L603.381,86.185C603.488,86.118 603.781,86.027 604.217,86.027C604.651,86.027 604.945,86.118 605.053,86.185L604.563,87.242ZM605.53,86.233L605.535,86.221L605.539,86.183L605.54,86.173L605.54,76.956C605.539,76.54 604.875,76.354 604.217,76.354C603.899,76.354 603.599,76.396 603.369,76.475C602.976,76.609 602.894,76.812 602.894,76.956L602.894,86.173L602.898,86.221L602.901,86.229L602.914,86.266L602.915,86.269L604.009,88.63L604.217,88.763L604.425,88.63L605.519,86.269L605.52,86.266L605.53,86.233Z" style="fill:rgb(86,104,116);fill-rule:nonzero;"/>
        </g>
        <g transform="matrix(4.16667,0,0,4.16667,-2308.33,38.8882)">
            <path d="M602.894,85.259L602.395,85.259L602.395,80.954L602.894,81.459L602.894,80.808L602.328,80.237L602.078,80.187C601.992,80.222 601.936,80.306 601.936,80.398L601.936,85.487C601.936,85.614 602.039,85.717 602.166,85.717L602.894,85.717L602.894,85.259Z" style="fill:rgb(86,104,116);fill-rule:nonzero;"/>
        </g>
        <g transform="matrix(4.16667,0,0,4.16667,-2308.33,38.8882)">
            <path d="M607.373,85.327L605.54,83.478L605.54,84.128L606.661,85.259L605.54,85.259L605.54,85.717L607.21,85.717C607.303,85.717 607.387,85.661 607.422,85.576L607.373,85.327Z" style="fill:rgb(86,104,116);fill-rule:nonzero;"/>
        </g>
        <g transform="matrix(4.16667,0,0,4.16667,-2308.33,38.8882)">
            <path d="M604.216,87.659L604.069,87.671L604.109,87.757L604.323,87.757L604.364,87.671L604.217,87.659L604.216,87.659Z" style="fill:rgb(86,104,116);fill-rule:nonzero;"/>
        </g>
        <g transform="matrix(4.16667,0,0,4.16667,-2308.33,38.8882)">
            <path d="M603.393,87.3L600.377,87.3L600.377,86.362L601.068,86.362C601.194,86.362 601.297,86.259 601.297,86.133C601.297,86.006 601.194,85.904 601.068,85.904L600.377,85.904L600.377,84.988L601.068,84.988C601.194,84.988 601.297,84.886 601.297,84.759C601.297,84.632 601.194,84.53 601.068,84.53L600.377,84.53L600.377,83.614L601.068,83.614C601.194,83.614 601.297,83.512 601.297,83.385C601.297,83.258 601.194,83.156 601.068,83.156L600.377,83.156L600.377,82.239L601.068,82.239C601.194,82.239 601.297,82.137 601.297,82.011C601.297,81.884 601.194,81.781 601.068,81.781L600.377,81.781L600.377,80.865L601.068,80.865C601.194,80.865 601.297,80.764 601.297,80.637C601.297,80.51 601.194,80.407 601.068,80.407L600.377,80.407L600.377,79.491L601.068,79.491C601.194,79.491 601.297,79.39 601.297,79.263C601.297,79.136 601.194,79.033 601.068,79.033L600.377,79.033L600.377,78.117L601.068,78.117C601.194,78.117 601.297,78.016 601.297,77.889C601.297,77.762 601.194,77.659 601.068,77.659L600.377,77.659L600.377,76.108L602.894,78.646L602.894,77.996L600.311,75.391L600.061,75.34C599.976,75.375 599.919,75.459 599.919,75.552L599.919,87.528C599.919,87.655 600.022,87.757 600.147,87.757L603.604,87.757L603.393,87.3Z" style="fill:rgb(86,104,116);fill-rule:nonzero;"/>
        </g>
        <g transform="matrix(4.16667,0,0,4.16667,-2308.33,38.8882)">
            <path d="M612.183,87.367L605.54,80.665L605.54,81.316L611.472,87.3L605.041,87.3L604.828,87.757L612.021,87.757C612.113,87.757 612.196,87.702 612.231,87.616L612.183,87.367Z" style="fill:rgb(86,104,116);fill-rule:nonzero;"/>
        </g>
        <g transform="matrix(4.16667,0,0,4.16667,-2308.33,38.8882)">
            <path d="M604.217,83.658C604.09,83.658 603.987,83.557 603.987,83.43L603.987,79.65C603.987,79.524 604.09,79.422 604.217,79.422C604.343,79.422 604.445,79.524 604.445,79.65L604.445,83.43C604.445,83.557 604.343,83.658 604.217,83.658Z" style="fill:rgb(86,104,116);fill-rule:nonzero;"/>
        </g>
    </g>
</svg>
