<?xml version="1.0" encoding="UTF-8" standalone="no"?>
<svg
   width="100%"
   height="100%"
   viewBox="0 0 679 161"
   version="1.1"
   xml:space="preserve"
   style="fill-rule:evenodd;clip-rule:evenodd;stroke-linejoin:round;stroke-miterlimit:2;"
   id="svg2"
   xmlns="http://www.w3.org/2000/svg"
   xmlns:svg="http://www.w3.org/2000/svg"><defs
   id="defs2" />
    <g
   transform="matrix(1,0,0,1,-133.592,-108.434)"
   id="g2">
        <g
   transform="matrix(1,0,0,1,-157.043,-10.4363)"
   id="g1">
            <path
   d="m 316.28499,154.27 v 21.3 h 34.35 v 19.8 h -34.35 v 23.1 h 38.85 v 20.55 h -64.5 v -105.3 h 64.5 v 20.55 z m 102.15006,63 v 21.75 h -13.05 q -13.95,0 -21.75,-6.75 -7.8,-6.9 -7.8,-22.35 v -33.3 h -10.2 v -21.3 h 10.2 v -20.4 h 25.65 v 20.4 h 16.8 v 21.3 h -16.8 v 33.6 q 0,3.75 1.8,5.4 1.8,1.65 6,1.65 z m 65.70002,-62.85 q 14.4,0 23.1,9.6 8.7,9.45 8.7,26.1 v 48.9 h -25.5 v -45.45 q 0,-8.4 -4.35,-13.05 -4.35,-4.65 -11.7,-4.65 -7.35,0 -11.7,4.65 -4.35,4.65 -4.35,13.05 v 45.45 h -25.65 v -111 h 25.65 v 38.55 q 3.9,-5.55 10.65,-8.85 6.75,-3.3 15.15,-3.3 z m 62.54996,-7.8 q -6.75,0 -11.1,-3.9 -4.2,-4.05 -4.2,-9.9 0,-6 4.2,-9.9 4.35,-4.05 11.1,-4.05 6.6,0 10.8,4.05 4.35,3.9 4.35,9.9 0,5.85 -4.35,9.9 -4.2,3.9 -10.8,3.9 z m 12.75,8.7 v 83.7 h -25.65 v -83.7 z m 13.50002,41.85 q 0,-13.05 5.25,-22.8 5.4,-9.75 14.85,-15 9.6,-5.25 21.9,-5.25 15.75,0 26.25,8.25 10.65,8.25 13.95,23.25 h -27.3 q -3.45,-9.6 -13.35,-9.6 -7.05,0 -11.25,5.55 -4.2,5.4 -4.2,15.6 0,10.2 4.2,15.75 4.2,5.4 11.25,5.4 9.9,0 13.35,-9.6 h 27.3 q -3.3,14.7 -13.95,23.1 -10.65,8.4 -26.25,8.4 -12.3,0 -21.9,-5.25 -9.45,-5.25 -14.85,-15 -5.25,-9.75 -5.25,-22.8 z m 161.39994,23.25 h -39.3 l -6.3,18.6 h -26.85 l 38.1,-105.3 h 29.7 l 38.1,105.3 h -27.15 z m -6.6,-19.8 -13.05,-38.55 -12.9,38.55 z m 77.24992,-33.45 q 3.75,-5.85 10.35,-9.45 6.6,-3.6 15.45,-3.6 10.35,0 18.75,5.25 8.4,5.25 13.2,15 4.95,9.75 4.95,22.65 0,12.9 -4.95,22.8 -4.8,9.75 -13.2,15.15 -8.4,5.25 -18.75,5.25 -8.7,0 -15.45,-3.6 -6.6,-3.6 -10.35,-9.3 v 51.6 h -25.65 v -123.6 h 25.65 z m 36.6,29.85 q 0,-9.6 -5.4,-15 -5.25,-5.55 -13.05,-5.55 -7.65,0 -13.05,5.55 -5.25,5.55 -5.25,15.15 0,9.6 5.25,15.15 5.4,5.55 13.05,5.55 7.65,0 13.05,-5.55 5.4,-5.7 5.4,-15.3 z m 65.25013,-29.85 q 3.75,-5.85 10.35,-9.45 6.6,-3.6 15.45,-3.6 10.35,0 18.75,5.25 8.4,5.25 13.2,15 4.95,9.75 4.95,22.65 0,12.9 -4.95,22.8 -4.8,9.75 -13.2,15.15 -8.4,5.25 -18.75,5.25 -8.7,0 -15.45,-3.6 -6.6,-3.6 -10.35,-9.3 v 51.6 h -25.65 v -123.6 h 25.65 z m 36.6,29.85 q 0,-9.6 -5.4,-15 -5.25,-5.55 -13.05,-5.55 -7.65,0 -13.05,5.55 -5.25,5.55 -5.25,15.15 0,9.6 5.25,15.15 5.4,5.55 13.05,5.55 7.65,0 13.05,-5.55 5.4,-5.7 5.4,-15.3 z"
   id="text1"
   style="font-weight:700;font-size:150px;font-family:Poppins-Bold, Poppins;fill:#2649ec"
   aria-label="EthicApp" />
        </g>
    </g>
</svg>
