<?xml version="1.0" encoding="UTF-8" standalone="no"?>
<!DOCTYPE svg PUBLIC "-//W3C//DTD SVG 1.1//EN" "http://www.w3.org/Graphics/SVG/1.1/DTD/svg11.dtd">
<svg width="100%" height="100%" viewBox="0 0 58 54" version="1.1" xmlns="http://www.w3.org/2000/svg" xmlns:xlink="http://www.w3.org/1999/xlink" xml:space="preserve" xmlns:serif="http://www.serif.com/" style="fill-rule:evenodd;clip-rule:evenodd;stroke-linejoin:round;stroke-miterlimit:2;">
    <g transform="matrix(1,0,0,1,-260.267,-535.588)">
        <g transform="matrix(4.16667,0,0,4.16667,136.046,-956.267)">
            <path d="M42.935,366.882C39.421,370.869 34.846,370.19 33.917,370.001L33.904,367.033C36.127,366.694 36.629,366.866 37.034,367.004C37.513,367.168 37.885,367.251 39.4,366.888C39.402,366.888 39.597,366.849 39.746,366.956C39.858,367.036 39.926,367.186 39.95,367.403L39.87,367.628C39.688,367.839 39.059,368.205 36.89,368.29C36.764,368.293 36.666,368.4 36.67,368.527C36.676,368.65 36.777,368.747 36.9,368.747L36.909,368.747C38.368,368.69 39.354,368.504 39.898,368.183L39.899,368.183C41.024,367.586 41.7,367.014 42.145,366.635C42.679,366.183 42.774,366.135 42.929,366.245C43.039,366.321 43.095,366.401 43.105,366.491C43.121,366.647 42.992,366.822 42.935,366.882ZM43.193,365.87C42.726,365.543 42.358,365.854 41.848,366.287C41.524,366.563 41.072,366.945 40.405,367.363L40.405,367.355C40.368,367.001 40.235,366.742 40.011,366.583C39.698,366.359 39.337,366.433 39.295,366.443C37.831,366.793 37.544,366.695 37.183,366.571C36.718,366.412 36.14,366.213 33.637,366.611L33.632,366.612L33.609,366.618L33.588,366.625L33.568,366.634L33.548,366.645L33.532,366.659L33.514,366.672L33.5,366.689L33.487,366.706L33.475,366.725L33.464,366.745L33.458,366.764L33.451,366.787L33.448,366.807L33.445,366.833L33.445,366.837L33.46,370.186C33.46,370.289 33.529,370.378 33.628,370.406C33.649,370.412 34.46,370.622 35.683,370.622C37.668,370.622 40.738,370.068 43.271,367.192C43.304,367.158 43.598,366.841 43.561,366.448C43.545,366.292 43.47,366.064 43.193,365.87Z" style="fill:rgb(83,112,241);fill-rule:nonzero;"/>
        </g>
        <g transform="matrix(4.16667,0,0,4.16667,136.046,-956.267)">
            <path d="M30.747,366.569C30.484,366.569 30.271,366.782 30.271,367.044L30.271,369.964C30.271,370.225 30.484,370.438 30.747,370.438L32.102,370.438C32.364,370.438 32.577,370.225 32.577,369.964L32.577,367.044C32.577,366.782 32.364,366.569 32.102,366.569L30.747,366.569ZM32.102,370.897L30.747,370.897C30.231,370.897 29.813,370.478 29.813,369.964L29.813,367.044C29.813,366.529 30.231,366.111 30.747,366.111L32.102,366.111C32.617,366.111 33.035,366.529 33.035,367.044L33.035,369.964C33.035,370.478 32.617,370.897 32.102,370.897Z" style="fill:rgb(83,112,241);fill-rule:nonzero;"/>
        </g>
        <g transform="matrix(4.16667,0,0,4.16667,136.046,-956.267)">
            <path d="M31.424,368.969C31.252,368.969 31.112,369.109 31.112,369.281C31.112,369.453 31.252,369.592 31.424,369.592C31.596,369.592 31.736,369.453 31.736,369.281C31.736,369.109 31.596,368.969 31.424,368.969ZM31.424,370.051C31,370.051 30.654,369.706 30.654,369.281C30.654,368.856 31,368.511 31.424,368.511C31.848,368.511 32.194,368.856 32.194,369.281C32.194,369.706 31.848,370.051 31.424,370.051Z" style="fill:rgb(83,112,241);fill-rule:nonzero;"/>
        </g>
        <g transform="matrix(4.16667,0,0,4.16667,136.046,-956.267)">
            <path d="M40.387,364.555C38.874,364.583 38.04,364.888 37.607,365.139L37.607,359.194C37.788,359.036 38.502,358.543 40.387,358.506L40.387,364.555ZM34.37,358.506C36.26,358.543 36.973,359.04 37.149,359.193L37.149,365.139C36.716,364.888 35.883,364.583 34.37,364.555L34.37,358.506ZM40.616,358.045C38.611,358.045 37.722,358.517 37.378,358.786C37.034,358.517 36.145,358.045 34.14,358.045C34.013,358.045 33.912,358.148 33.912,358.275L33.912,364.782C33.912,364.909 34.013,365.011 34.14,365.011C36.563,365.011 37.193,365.742 37.196,365.746L37.378,365.835L37.417,365.829L37.432,365.827L37.451,365.823L37.47,365.814L37.49,365.803L37.52,365.786L37.558,365.749C37.563,365.742 38.193,365.011 40.616,365.011C40.743,365.011 40.844,364.909 40.844,364.782L40.844,358.275C40.844,358.148 40.743,358.045 40.616,358.045Z" style="fill:rgb(83,112,241);fill-rule:nonzero;"/>
        </g>
    </g>
</svg>
