<?xml version="1.0" encoding="UTF-8" standalone="no"?>
<!DOCTYPE svg PUBLIC "-//W3C//DTD SVG 1.1//EN" "http://www.w3.org/Graphics/SVG/1.1/DTD/svg11.dtd">
<svg width="100%" height="100%" viewBox="0 0 58 42" version="1.1" xmlns="http://www.w3.org/2000/svg" xmlns:xlink="http://www.w3.org/1999/xlink" xml:space="preserve" xmlns:serif="http://www.serif.com/" style="fill-rule:evenodd;clip-rule:evenodd;stroke-linejoin:round;stroke-miterlimit:2;">
    <g transform="matrix(1,0,0,1,-507.376,-538.006)">
        <g transform="matrix(4.16667,0,0,4.16667,-2.62865,-729.556)">
            <path d="M125.628,312.797L133.048,312.797L132.33,312.179L126.346,312.179L125.628,312.797ZM133.666,313.255L125.011,313.255C124.915,313.255 124.83,313.195 124.796,313.106C124.763,313.015 124.789,312.915 124.861,312.852L126.111,311.777L126.261,311.721L132.415,311.721L132.563,311.777L133.815,312.852C133.888,312.915 133.914,313.015 133.881,313.106C133.848,313.195 133.762,313.255 133.666,313.255Z" style="fill:rgb(83,112,241);fill-rule:nonzero;"/>
        </g>
        <g transform="matrix(4.16667,0,0,4.16667,-2.62865,-729.556)">
            <path d="M133.437,313.684L125.24,313.684L125.24,313.255L133.437,313.255L133.437,313.684ZM126.489,308.472L127.208,308.472L127.208,312.797L126.489,312.797L126.489,308.472ZM132.79,307.585L132.325,308.014L126.351,308.014L125.886,307.585L132.79,307.585ZM129.338,304.684L132.676,307.127L126.001,307.127L129.338,304.684ZM131.468,308.472L132.186,308.472L132.186,312.797L131.468,312.797L131.468,308.472ZM128.979,308.472L129.696,308.472L129.696,312.797L128.979,312.797L128.979,308.472ZM127.665,312.797L127.665,308.472L128.521,308.472L128.521,312.797L127.665,312.797ZM130.154,312.797L130.154,308.472L131.009,308.472L131.009,312.797L130.154,312.797ZM133.666,312.797L132.644,312.797L132.644,308.343L133.531,307.524L133.546,307.506L133.565,307.48L133.584,307.446L133.594,307.427L133.595,307.418L133.602,307.378L133.604,307.348L133.599,307.312L133.591,307.28L133.589,307.273L133.574,307.247L133.559,307.218L133.527,307.187L133.512,307.171L129.473,304.215L129.201,304.215L125.166,307.171L125.119,307.218L125.103,307.247L125.088,307.272L125.086,307.28L125.079,307.313L125.074,307.348L125.076,307.379L125.082,307.418L125.084,307.427L125.094,307.447L125.11,307.48L125.132,307.507L125.146,307.524L126.031,308.343L126.031,312.797L125.011,312.797C124.885,312.797 124.782,312.899 124.782,313.026L124.782,313.913C124.782,314.04 124.885,314.142 125.011,314.142L133.666,314.142C133.793,314.142 133.896,314.04 133.896,313.913L133.896,313.026C133.896,312.899 133.793,312.797 133.666,312.797Z" style="fill:rgb(83,112,241);fill-rule:nonzero;"/>
        </g>
        <g transform="matrix(4.16667,0,0,4.16667,-2.62865,-729.556)">
            <path d="M126.031,311.652L123.075,311.652L123.075,309.388L126.031,309.388L126.031,308.93L123.096,308.93L124.839,306.666L125.857,306.666L126.482,306.208L124.727,306.208L124.545,306.296L122.448,309.02L122.425,309.26L122.618,309.386L122.618,311.653C122.497,311.66 122.401,311.758 122.401,311.881C122.401,312.007 122.504,312.11 122.631,312.11L126.031,312.11L126.031,311.652Z" style="fill:rgb(83,112,241);fill-rule:nonzero;"/>
        </g>
        <g transform="matrix(4.16667,0,0,4.16667,-2.62865,-729.556)">
            <path d="M136.059,311.653L136.059,309.386L136.251,309.26L136.227,309.02L134.131,306.296L133.949,306.208L132.193,306.208L132.819,306.666L133.837,306.666L135.58,308.93L132.644,308.93L132.644,309.388L135.6,309.388L135.6,311.652L132.644,311.652L132.644,312.11L136.046,312.11C136.172,312.11 136.274,312.007 136.274,311.881C136.274,311.758 136.179,311.66 136.059,311.653Z" style="fill:rgb(83,112,241);fill-rule:nonzero;"/>
        </g>
    </g>
</svg>
