<?xml version="1.0" encoding="UTF-8" standalone="no"?>
<!DOCTYPE svg PUBLIC "-//W3C//DTD SVG 1.1//EN" "http://www.w3.org/Graphics/SVG/1.1/DTD/svg11.dtd">
<svg width="100%" height="100%" viewBox="0 0 61 56" version="1.1" xmlns="http://www.w3.org/2000/svg" xmlns:xlink="http://www.w3.org/1999/xlink" xml:space="preserve" xmlns:serif="http://www.serif.com/" style="fill-rule:evenodd;clip-rule:evenodd;stroke-linejoin:round;stroke-miterlimit:2;">
    <g transform="matrix(1,0,0,1,-422.488,-350.76)">
        <g transform="matrix(4.16667,0,0,4.16667,-648.408,-276.985)">
            <path d="M260.379,163.218C259.226,163.218 258.989,162.893 258.989,162.405C258.989,161.655 259.631,160.74 260.379,160.74C261.127,160.74 261.768,161.655 261.768,162.405C261.768,162.893 261.531,163.218 260.379,163.218ZM260.379,160.128C259.252,160.128 258.379,161.353 258.379,162.405C258.379,163.83 259.884,163.83 260.379,163.83C260.872,163.83 262.378,163.83 262.378,162.405C262.378,161.353 261.505,160.128 260.379,160.128Z" style="fill:rgb(86,104,116);fill-rule:nonzero;"/>
        </g>
        <g transform="matrix(4.16667,0,0,4.16667,-648.408,-276.985)">
            <path d="M260.379,160.251C260,160.251 259.642,159.791 259.642,159.303C259.642,158.845 259.972,158.471 260.379,158.471C260.785,158.471 261.114,158.845 261.114,159.303C261.114,159.791 260.756,160.251 260.379,160.251ZM260.379,157.861C259.635,157.861 259.031,158.508 259.031,159.303C259.031,160.133 259.661,160.862 260.379,160.862C261.096,160.862 261.726,160.133 261.726,159.303C261.726,158.508 261.121,157.861 260.379,157.861Z" style="fill:rgb(86,104,116);fill-rule:nonzero;"/>
        </g>
        <g transform="matrix(4.16667,0,0,4.16667,-648.408,-276.985)">
            <path d="M268.109,163.218C266.957,163.218 266.721,162.893 266.721,162.405C266.721,161.655 267.361,160.74 268.109,160.74C268.857,160.74 269.498,161.655 269.498,162.405C269.498,162.893 269.262,163.218 268.109,163.218ZM268.109,160.128C266.983,160.128 266.11,161.353 266.11,162.405C266.11,163.83 267.614,163.83 268.109,163.83C268.604,163.83 270.109,163.83 270.109,162.405C270.109,161.353 269.235,160.128 268.109,160.128Z" style="fill:rgb(86,104,116);fill-rule:nonzero;"/>
        </g>
        <g transform="matrix(4.16667,0,0,4.16667,-648.408,-276.985)">
            <path d="M268.109,160.251C267.731,160.251 267.373,159.791 267.373,159.303C267.373,158.845 267.703,158.471 268.109,158.471C268.516,158.471 268.847,158.845 268.847,159.303C268.847,159.791 268.488,160.251 268.109,160.251ZM268.109,157.861C267.366,157.861 266.762,158.508 266.762,159.303C266.762,160.133 267.393,160.862 268.109,160.862C268.827,160.862 269.457,160.133 269.457,159.303C269.457,158.508 268.853,157.861 268.109,157.861Z" style="fill:rgb(86,104,116);fill-rule:nonzero;"/>
        </g>
        <g transform="matrix(4.16667,0,0,4.16667,-648.408,-276.985)">
            <path d="M264.244,156.646C263.092,156.646 262.855,156.32 262.855,155.831C262.855,155.082 263.496,154.167 264.244,154.167C264.992,154.167 265.633,155.082 265.633,155.831C265.633,156.32 265.397,156.646 264.244,156.646ZM264.244,153.556C263.118,153.556 262.245,154.778 262.245,155.831C262.245,157.256 263.749,157.256 264.244,157.256C264.738,157.256 266.243,157.256 266.243,155.831C266.243,154.778 265.37,153.556 264.244,153.556Z" style="fill:rgb(86,104,116);fill-rule:nonzero;"/>
        </g>
        <g transform="matrix(4.16667,0,0,4.16667,-648.408,-276.985)">
            <path d="M264.244,153.678C263.865,153.678 263.508,153.218 263.508,152.73C263.508,152.271 263.838,151.898 264.244,151.898C264.65,151.898 264.98,152.271 264.98,152.73C264.98,153.218 264.623,153.678 264.244,153.678ZM264.244,151.288C263.501,151.288 262.897,151.934 262.897,152.73C262.897,153.56 263.526,154.289 264.244,154.289C264.962,154.289 265.591,153.56 265.591,152.73C265.591,151.934 264.986,151.288 264.244,151.288Z" style="fill:rgb(86,104,116);fill-rule:nonzero;"/>
        </g>
        <g transform="matrix(4.16667,0,0,4.16667,-648.408,-276.985)">
            <path d="M268.109,163.35C266.591,163.35 265.355,162.115 265.355,160.596C265.355,159.079 266.591,157.843 268.109,157.843C269.628,157.843 270.862,159.079 270.862,160.596C270.862,162.115 269.628,163.35 268.109,163.35ZM261.491,154.023C261.491,152.504 262.726,151.27 264.244,151.27C265.763,151.27 266.997,152.504 266.997,154.023C266.997,155.542 265.763,156.776 264.244,156.776C262.726,156.776 261.491,155.542 261.491,154.023ZM260.379,163.35C258.859,163.35 257.626,162.115 257.626,160.596C257.626,159.079 258.859,157.843 260.379,157.843C261.896,157.843 263.132,159.079 263.132,160.596C263.132,162.115 261.896,163.35 260.379,163.35ZM268.109,157.233C266.868,157.233 265.783,157.908 265.2,158.911L264.55,158.259L264.55,157.372C266.262,157.217 267.608,155.775 267.608,154.023C267.608,152.168 266.099,150.659 264.244,150.659C262.39,150.659 260.88,152.168 260.88,154.023C260.88,155.775 262.227,157.217 263.939,157.372L263.939,158.259L263.288,158.911C262.704,157.908 261.618,157.233 260.379,157.233C258.523,157.233 257.015,158.742 257.015,160.596C257.015,162.452 258.523,163.96 260.379,163.96C262.233,163.96 263.742,162.452 263.742,160.596C263.742,160.213 263.677,159.845 263.559,159.502L264.244,158.818L264.93,159.502C264.811,159.845 264.746,160.213 264.746,160.596C264.746,162.452 266.255,163.96 268.109,163.96C269.964,163.96 271.473,162.452 271.473,160.596C271.473,158.742 269.964,157.233 268.109,157.233Z" style="fill:rgb(86,104,116);fill-rule:nonzero;"/>
        </g>
    </g>
</svg>
