<?xml version="1.0" encoding="UTF-8" standalone="no"?>
<!DOCTYPE svg PUBLIC "-//W3C//DTD SVG 1.1//EN" "http://www.w3.org/Graphics/SVG/1.1/DTD/svg11.dtd">
<svg width="100%" height="100%" viewBox="0 0 40 43" version="1.1" xmlns="http://www.w3.org/2000/svg" xmlns:xlink="http://www.w3.org/1999/xlink" xml:space="preserve" xmlns:serif="http://www.serif.com/" style="fill-rule:evenodd;clip-rule:evenodd;stroke-linejoin:round;stroke-miterlimit:2;">
    <g transform="matrix(1,0,0,1,-190.215,-445.326)">
        <g transform="matrix(4.16667,0,0,4.16667,-1842.77,-426.703)">
            <path d="M497.004,213.986L497.004,218.209C497.004,218.708 496.599,219.113 496.101,219.113L489.278,219.113C488.78,219.113 488.375,218.708 488.375,218.209L488.375,213.986C488.095,213.751 487.916,213.4 487.916,213.007L487.916,218.209C487.916,218.96 488.528,219.57 489.278,219.57L496.101,219.57C496.852,219.57 497.462,218.96 497.462,218.209L497.462,213.007C497.462,213.4 497.284,213.751 497.004,213.986Z" style="fill:rgb(86,104,116);fill-rule:nonzero;"/>
        </g>
        <g transform="matrix(4.16667,0,0,4.16667,-1842.77,-426.703)">
            <path d="M495.308,212.703L495.739,212.703L495.739,211.763C495.739,210.65 494.833,209.745 493.72,209.745L491.659,209.745C490.546,209.745 489.64,210.65 489.64,211.763L489.64,212.703L490.071,212.703L490.071,212.081C490.071,211.051 490.908,210.213 491.938,210.213L493.44,210.213C494.47,210.213 495.308,211.051 495.308,212.081L495.308,212.703ZM495.968,213.162L495.079,213.162C494.953,213.162 494.85,213.059 494.85,212.932L494.85,212.081C494.85,211.304 494.218,210.671 493.44,210.671L491.938,210.671C491.161,210.671 490.528,211.304 490.528,212.081L490.528,212.932C490.528,213.059 490.427,213.162 490.3,213.162L489.411,213.162C489.284,213.162 489.182,213.059 489.182,212.932L489.182,211.763C489.182,210.398 490.294,209.287 491.659,209.287L493.72,209.287C495.086,209.287 496.197,210.398 496.197,211.763L496.197,212.932C496.197,213.059 496.095,213.162 495.968,213.162Z" style="fill:rgb(86,104,116);fill-rule:nonzero;"/>
        </g>
        <g transform="matrix(4.16667,0,0,4.16667,-1842.77,-426.703)">
            <path d="M494.749,211.559L490.631,211.559C490.573,211.702 490.539,211.856 490.532,212.017L494.847,212.017C494.839,211.856 494.806,211.702 494.749,211.559Z" style="fill:rgb(86,104,116);fill-rule:nonzero;"/>
        </g>
        <g transform="matrix(4.16667,0,0,4.16667,-1842.77,-426.703)">
            <path d="M496.187,211.559L496.197,211.763L496.197,212.018C496.644,212.023 497.004,212.387 497.004,212.835L497.004,213.007C497.004,213.459 496.638,213.825 496.187,213.825L489.192,213.825C488.741,213.825 488.375,213.459 488.375,213.007L488.375,212.835C488.375,212.387 488.736,212.023 489.182,212.018L489.182,211.763L489.192,211.559C488.488,211.559 487.916,212.131 487.916,212.835L487.916,213.007C487.916,213.71 488.488,214.283 489.192,214.283L496.187,214.283C496.89,214.283 497.462,213.71 497.462,213.007L497.462,212.835C497.462,212.131 496.89,211.559 496.187,211.559Z" style="fill:rgb(86,104,116);fill-rule:nonzero;"/>
        </g>
        <g transform="matrix(4.16667,0,0,4.16667,-1842.77,-426.703)">
            <path d="M492.026,217.956L493.352,217.956L492.98,216.554L493.049,216.325C493.163,216.222 493.229,216.077 493.229,215.924C493.229,215.626 492.986,215.384 492.689,215.384C492.392,215.384 492.149,215.626 492.149,215.924C492.149,216.077 492.216,216.222 492.329,216.325L492.397,216.554L492.026,217.956ZM493.65,218.415L491.729,218.415L491.548,218.325L491.508,218.126L491.922,216.56C491.774,216.382 491.692,216.157 491.692,215.924C491.692,215.375 492.14,214.927 492.689,214.927C493.239,214.927 493.687,215.375 493.687,215.924C493.687,216.157 493.604,216.382 493.456,216.56L493.871,218.126L493.831,218.325L493.65,218.415Z" style="fill:rgb(86,104,116);fill-rule:nonzero;"/>
        </g>
    </g>
</svg>
