<?xml version="1.0" encoding="UTF-8" standalone="no"?>
<!DOCTYPE svg PUBLIC "-//W3C//DTD SVG 1.1//EN" "http://www.w3.org/Graphics/SVG/1.1/DTD/svg11.dtd">
<svg width="100%" height="100%" viewBox="0 0 45 62" version="1.1" xmlns="http://www.w3.org/2000/svg" xmlns:xlink="http://www.w3.org/1999/xlink" xml:space="preserve" xmlns:serif="http://www.serif.com/" style="fill-rule:evenodd;clip-rule:evenodd;stroke-linejoin:round;stroke-miterlimit:2;">
    <g transform="matrix(1,0,0,1,-123.517,-533.788)">
        <g transform="matrix(4.16667,0,0,4.16667,-1995.01,220.694)">
            <path d="M518.728,84.599C518.349,84.384 517.669,84.086 516.739,84.029C517.065,83.089 517.142,82.094 516.966,81.03C518.565,82.401 518.741,83.919 518.728,84.599ZM516.276,83.973L516.175,84.231L516.117,84.365L516.103,84.409C515.977,84.615 515.702,84.812 515.318,84.961C514.922,85.115 514.406,85.216 513.815,85.216C513.224,85.216 512.711,85.115 512.313,84.961C511.93,84.812 511.656,84.614 511.529,84.409L511.515,84.365L511.457,84.231L511.354,83.973C510.927,82.808 510.956,81.665 511.202,80.615C511.224,80.523 511.247,80.433 511.271,80.342C511.52,79.437 511.92,78.608 512.315,77.905C512.643,78.145 513.244,78.258 513.815,78.258C514.388,78.258 514.989,78.145 515.315,77.905C515.711,78.608 516.112,79.437 516.36,80.342C516.385,80.433 516.409,80.523 516.431,80.615C516.677,81.665 516.705,82.809 516.276,83.973ZM514.943,86.185C514.734,86.267 514.414,86.342 513.994,86.36L513.815,86.364L513.638,86.36C513.219,86.342 512.896,86.267 512.688,86.185C512.518,86.118 512.422,86.048 512.412,86.004L512.412,85.478C512.823,85.602 513.301,85.674 513.815,85.674C514.331,85.674 514.809,85.602 515.219,85.478L515.219,86.002C515.209,86.046 515.114,86.117 514.943,86.185ZM513.815,89.275C513.5,88.96 512.797,88.167 512.766,87.346C512.755,87.123 512.797,86.917 512.89,86.724C513.177,86.789 513.5,86.822 513.815,86.822C514.13,86.822 514.455,86.789 514.742,86.724C514.834,86.917 514.875,87.122 514.867,87.345C514.836,88.163 514.13,88.959 513.815,89.275ZM508.905,84.599C508.891,83.919 509.066,82.401 510.665,81.03C510.491,82.094 510.567,83.089 510.894,84.029C509.962,84.086 509.282,84.384 508.905,84.599ZM513.815,75.718C514.07,76.021 514.578,76.659 515.085,77.507C514.979,77.609 514.549,77.8 513.815,77.8C513.078,77.8 512.646,77.607 512.544,77.509C513.054,76.66 513.562,76.021 513.815,75.718ZM516.817,80.332C516.573,79.396 516.148,78.41 515.533,77.365L515.533,77.364C514.774,76.074 514.017,75.248 513.984,75.213C513.896,75.119 513.734,75.119 513.648,75.213C513.616,75.248 512.857,76.074 512.099,77.364C511.483,78.409 511.058,79.396 510.814,80.332C508.021,82.368 508.465,84.933 508.484,85.043L508.631,85.215L508.71,85.229L508.855,85.177C508.863,85.17 509.669,84.525 511.058,84.481C511.187,84.811 511.506,85.096 511.954,85.306L511.954,86.004C511.954,86.258 512.151,86.449 512.452,86.583C512.346,86.827 512.296,87.088 512.307,87.363C512.354,88.581 513.549,89.659 513.659,89.759L513.753,89.812L513.815,89.82L513.974,89.756C514.097,89.648 515.276,88.574 515.323,87.363C515.336,87.088 515.286,86.827 515.18,86.583C515.479,86.449 515.677,86.258 515.677,86.004L515.677,85.306C516.125,85.096 516.445,84.811 516.573,84.481C517.953,84.525 518.77,85.171 518.776,85.177L518.922,85.229L519,85.215L519.146,85.043C519.168,84.933 519.611,82.368 516.817,80.332Z" style="fill:rgb(83,112,241);fill-rule:nonzero;"/>
        </g>
        <g transform="matrix(4.16667,0,0,4.16667,-1995.01,220.694)">
            <path d="M513.815,79.414C514.167,79.414 514.452,79.699 514.452,80.05C514.452,80.401 514.167,80.687 513.815,80.687C513.465,80.687 513.18,80.401 513.18,80.05C513.18,79.699 513.465,79.414 513.815,79.414ZM513.815,81.145C514.419,81.145 514.911,80.653 514.911,80.05C514.911,79.446 514.419,78.956 513.815,78.956C513.213,78.956 512.722,79.446 512.722,80.05C512.722,80.653 513.213,81.145 513.815,81.145Z" style="fill:rgb(83,112,241);fill-rule:nonzero;"/>
        </g>
        <g transform="matrix(4.16667,0,0,4.16667,-1995.01,220.694)">
            <path d="M513.815,83.933C513.346,83.933 512.964,83.55 512.964,83.079C512.964,82.608 513.346,82.227 513.815,82.227C514.287,82.227 514.669,82.608 514.669,83.079C514.669,83.55 514.287,83.933 513.815,83.933ZM513.815,81.768C513.094,81.768 512.505,82.356 512.505,83.079C512.505,83.802 513.094,84.39 513.815,84.39C514.539,84.39 515.127,83.802 515.127,83.079C515.127,82.356 514.539,81.768 513.815,81.768Z" style="fill:rgb(83,112,241);fill-rule:nonzero;"/>
        </g>
    </g>
</svg>
